<?xml version="1.0" encoding="utf-8"?>
<!-- Svg Vector Icons : http://www.onlinewebfonts.com/icon -->
<!DOCTYPE svg PUBLIC "-//W3C//DTD SVG 1.1//EN" "http://www.w3.org/Graphics/SVG/1.1/DTD/svg11.dtd">
<svg version="1.1" xmlns="http://www.w3.org/2000/svg" xmlns:xlink="http://www.w3.org/1999/xlink" x="0px" y="0px" viewBox="0 0 1000 1000" enable-background="new 0 0 1000 1000" xml:space="preserve">
<metadata> Svg Vector Icons : http://www.onlinewebfonts.com/icon </metadata>
<g><path d="M930.3,436C930.3,436,930.2,436,930.3,436l-64.4,3.5c-18-81.9-64.8-155.4-132.8-208c-30.2-23.5-64-42.2-100.4-55.6c0,0,0,0,0,0c-37.2-13.7-76.4-21.5-116.5-23.1c0,0-0.1,0-0.1,0c-5.2-0.2-10.3-0.3-15.6-0.3c-0.1,0-0.2,0-0.3,0c-107.3,0-209.6,44.9-280.6,123.1C175.7,322.2,147,377.1,134.2,439L69,436c-32.5,0-59,25.9-59,57.7v107.2c0,31.8,26.5,57.7,59,57.7h45.7c34.6,0,41-14.9,41-44.4V479.6c0.9-7.9,2.1-15.9,3.5-23.6l0-0.2l0,0l0.3-1.5c11.3-59.2,39.1-114.6,80.3-160C306,223.8,405.7,180.1,500.1,180c5,0,9.9,0.1,14.8,0.3c0,0,0.1,0,0.1,0c37,1.5,73.4,8.8,108,21.4c0,0,0,0,0.1,0c33.6,12.4,64.9,29.7,93.1,51.5c63.5,49.5,106.7,119.8,125,203.4c1.4,7.4,2.5,15,3.2,21.5v135.9c0,5,0.3,9.3,0.8,13.5L787.9,641c10.4-30.6,16.1-63.3,16.1-97.3c0-167.6-136.4-304-304-304S196,376,196,543.6s136.4,304,304,304c121.6,0,226.8-71.9,275.3-175.3l83.2-19.4c6.1,3.7,14.7,5.6,26.8,5.6H931c32.5,0,59-25.9,59-57.7V493.6C990,461.8,963.5,436,930.3,436z M128.1,477.3L128,614.2c0,9-0.4,14.3-0.9,15.3c-0.4,0.2-2.7,1.4-12.5,1.4H69c-17.3,0-31.4-13.5-31.4-30V493.6c0-16.6,14.1-30,30.7-30.1l61.1,2.9C128.9,470.1,128.5,473.7,128.1,477.3z M500,820c-152.4,0-276.3-124-276.3-276.3c0-152.4,124-276.3,276.3-276.3s276.3,124,276.3,276.3c0,37.1-7.5,72.5-20.8,104.9l-185.4,43.2c-7.6-8.5-19.1-14-32.3-14c-22.8,0-41.3,16.4-41.3,36.6s18.5,36.6,41.3,36.6c21.3,0,38.7-14.4,40.9-32.7l160.9-37.5C692,763.7,602.5,820,500,820z M962.4,600.8c0,16.6-14.1,30-31.4,30h-45.7c-8.8,0-11.6-0.9-12-0.9c0,0-0.1,0-0.1,0c-0.9-1.5-1.3-6.9-1.3-15.8V477.8l-0.1-1.5c-0.4-3.1-0.7-6.3-1.2-9.4l60.3-3.3c17.3,0,31.4,13.5,31.4,30L962.4,600.8L962.4,600.8z"/></g>
</svg>