<?xml version="1.0" encoding="utf-8"?>
<!-- Svg Vector Icons : http://www.onlinewebfonts.com/icon -->
<!DOCTYPE svg PUBLIC "-//W3C//DTD SVG 1.1//EN" "http://www.w3.org/Graphics/SVG/1.1/DTD/svg11.dtd">
<svg version="1.1" xmlns="http://www.w3.org/2000/svg" xmlns:xlink="http://www.w3.org/1999/xlink" x="0px" y="0px" viewBox="0 0 1000 1000" enable-background="new 0 0 1000 1000" xml:space="preserve">
<metadata> Svg Vector Icons : http://www.onlinewebfonts.com/icon </metadata>
<g><path d="M838.5,152.1C752.9,51.8,632.9,10,500,10c-133,0-252.9,41.8-338.6,142.1C75.7,252.5,23.4,390,23.4,541.5c0,117,31.4,225.8,85.2,315.4l0.6-0.3l5.6,9.5l17.1-0.7c2-0.1,5.4-0.2,9.7-1L244,843.5c29.6-6,49.9-31.9,49.9-61c0-4.1-0.4-8.3-1.3-12.4l-55.7-274.4c-6-29.5-31.9-49.8-61-49.8c-4.1,0-8.3,0.4-12.4,1.3l-78,15.8c14.4-106.7,57.5-201.7,119.2-274C281.3,99.5,385.5,66.9,500,66.9c114.5,0,218.7,32.6,295.3,122.2c61.8,72.2,104.9,167.4,119.2,274L836,447.2c-4.1-0.9-8.3-1.3-12.4-1.3c-29.1,0-54.9,20.3-61,49.9l-55.7,274.4l0,0c-0.8,4.2-1.3,8.4-1.3,12.4c0,29.1,20.4,54.9,49.9,61l100.8,20.5c-8.9,14.1-23.8,27.1-43.6,36.7c-20.5,9.8-45.8,15.8-73.4,15.8H598.8v-34.4H401.2V990h197.5v-18.9v-16.5h140.6c44,0,84.1-12.6,114.1-34c15.1-10.7,27.7-23.8,36.6-38.7c8.5-14.3,13.5-30.4,14-47.4c45.8-85.1,72.6-185.4,72.6-292.8C976.6,390,924.3,252.5,838.5,152.1z M174.7,502.9l1.1-0.1c2.4,0,4.8,1.8,5.3,4.3l55.7,274.4l0,0l0.1,1.1c0,2.4-1.8,4.8-4.3,5.3l-10.6,2.1l-20.1,4.1l-60-284.7l20.6-4.2L174.7,502.9z M123.3,513.3L183.3,798l-37.5,7.6c-18.3-34.2-33.3-71.3-44.2-110.6l-15.3-75.7c-3.4-25.4-5.2-51.3-5.2-77.7c0-6.6,0.4-13.2,0.7-19.8L123.3,513.3z M560.9,952.1H439.1v-32h121.8V952.1z M766.9,788c-2.5-0.5-4.4-2.9-4.4-5.3l0.1-1v-0.1l55.7-274.4c0.5-2.6,2.9-4.3,5.2-4.3l1.1,0.1l10.3,2.1l20.5,4.2l-60.1,284.6l-19.9-4L766.9,788z M897.8,694.9c-10.9,39.3-25.9,76.4-44.2,110.6l-39.6-8.1L874,512.8l43.6,8.9c0.2,6.6,0.7,13.2,0.7,19.8c0,26.4-1.8,52.3-5.2,77.7L897.8,694.9z"/></g>
</svg>