<?xml version="1.0" encoding="utf-8"?>
<!-- Svg Vector Icons : http://www.onlinewebfonts.com/icon -->
<!DOCTYPE svg PUBLIC "-//W3C//DTD SVG 1.1//EN" "http://www.w3.org/Graphics/SVG/1.1/DTD/svg11.dtd">
<svg version="1.1" xmlns="http://www.w3.org/2000/svg" xmlns:xlink="http://www.w3.org/1999/xlink" x="0px" y="0px" viewBox="0 0 1000 1000" enable-background="new 0 0 1000 1000" xml:space="preserve">
<metadata> Svg Vector Icons : http://www.onlinewebfonts.com/icon </metadata>
<g><path d="M500.9,195.6c-168.4,0-304.9,132.1-304.9,294.9c0,79.8,32.8,152,85.9,205.1c24.2,21,50.5,39.6,79.5,54.2c15.8,7.9,33.2,15.9,51.4,23.1c27.9,8.1,57.5,12.5,88.1,12.5c168.4,0,304.9-132,304.9-294.9C805.8,327.7,669.3,195.6,500.9,195.6L500.9,195.6z M500.9,741.1c-143.1,0-259.2-112.2-259.2-250.6c0-138.5,116.1-250.6,259.2-250.6c143.2,0,259.2,112.2,259.2,250.6C760.1,628.9,644.1,741.1,500.9,741.1L500.9,741.1z M334.8,549.9c172.8,141.1,332.3,0,332.3,0s0,146-166.2,146C334.8,695.9,334.8,549.9,334.8,549.9L334.8,549.9z M500.9,104.1C313.4,104.1,156,229,113,397.7c0,0-107.6,16.4-102.8,121.1c4.7,104.7,118.3,111.1,118.3,111.1c1.4,3.4,25.2-3.3,33.8-4.7c-17.7-41.5-27.5-87-27.5-134.7c0-195.6,164-354.2,366.2-354.2c202.3,0,366.2,158.6,366.2,354.2c0,156.1-104.3,288.5-249.3,335.7c-9.4,3.1-19.2-1-19.2-1s-24.5-4.5-55.3,4c-15.2,4.2-21.7,19.8-20.8,33.5c1.1,16.3,7.5,28,25.2,30.6c22.7,3.4,55,7.3,67.2-16.1c3.3-6.4,6.9-18.2,14.7-20.8c112-36.8,201.6-120.4,244.1-226.6c0,0,112.9-12.8,116.2-113.4C993.2,415.8,889,398,889,398C846.1,229.2,688.6,104.1,500.9,104.1L500.9,104.1z"/></g>
</svg>