<?xml version="1.0" encoding="utf-8"?>
<!-- Svg Vector Icons : http://www.onlinewebfonts.com/icon -->
<!DOCTYPE svg PUBLIC "-//W3C//DTD SVG 1.1//EN" "http://www.w3.org/Graphics/SVG/1.1/DTD/svg11.dtd">
<svg version="1.1" xmlns="http://www.w3.org/2000/svg" xmlns:xlink="http://www.w3.org/1999/xlink" x="0px" y="0px" viewBox="0 0 1000 1000" enable-background="new 0 0 1000 1000" xml:space="preserve">
<metadata> Svg Vector Icons : http://www.onlinewebfonts.com/icon </metadata>
<g><path d="M76.2,990V301.4h154.3c-29.8-31-48.3-72.8-48.3-119.2C182.2,87.1,259.2,10,354.3,10c61.6,0,115.3,32.6,145.7,81.3C530.4,42.6,584.1,10,645.7,10c95.1,0,172.2,77.1,172.2,172.2c0,46.4-18.5,88.2-48.3,119.2h154.3v317.8v53V990L76.2,990L76.2,990z M473.5,168.9h-1.3C465.5,109.4,415.6,63,354.3,63c-65.8,0-119.2,53.4-119.2,119.2c0,65.8,53.4,119.2,119.2,119.2c4.5,0,8.8-0.9,13.2-1.3v1.3h105.9V168.9z M473.5,354.3H129.2v264.9h344.3V354.3z M473.5,672.2H129.2V937h344.3V672.2z M645.7,63c-61.3,0-111.2,46.4-117.9,105.9h-1.3v132.4h105.9V300c4.4,0.5,8.7,1.3,13.2,1.3c65.8,0,119.2-53.4,119.2-119.2C764.9,116.3,711.5,63,645.7,63z M870.8,354.3H526.5v264.9h344.3V354.3z M870.8,672.2H526.5V937h344.3V672.2z"/></g>
</svg>