<?xml version="1.0" encoding="utf-8"?>
<!-- Svg Vector Icons : http://www.onlinewebfonts.com/icon -->
<!DOCTYPE svg PUBLIC "-//W3C//DTD SVG 1.1//EN" "http://www.w3.org/Graphics/SVG/1.1/DTD/svg11.dtd">
<svg version="1.1" xmlns="http://www.w3.org/2000/svg" xmlns:xlink="http://www.w3.org/1999/xlink" x="0px" y="0px" viewBox="0 0 1000 1000" enable-background="new 0 0 1000 1000" xml:space="preserve">
<metadata> Svg Vector Icons : http://www.onlinewebfonts.com/icon </metadata>
<g><path d="M569.1,62.2C532,25,466.7,25,429.5,62.2L19,472.7c-12,12-12,31.4,0,43.3c12,12,31.4,12,43.3,0l410.5-410.6c14-14,38.9-14.1,52.9,0l411.9,411.9c6,6,13.8,9,21.7,9c7.8,0,15.7-3,21.7-9c12-12,12-31.4,0-43.3L569.1,62.2L569.1,62.2z M181,450.3c-16.9,0-30.7,13.7-30.7,30.6l0.1,385.4c2.8,34.3,28.1,99.1,104.3,99.1l487-0.2c1.2,0.1,4.9,0.5,10.2,0.5c15,0,43.1-3,65.6-23c13.4-11.9,29.4-34.2,29.4-73.2V758.9c0-28.2-24.2-81.5-115.7-81.5H441.9l72.7-72.7c12-12,12-31.4,0-43.3c-12-12-31.4-12-43.3,0L340.8,691.8c-12,12-12,31.4,0,43.3l137.6,137.5c6,6,13.8,9,21.7,9c7.8,0,15.7-3,21.7-9c12-12,12-31.4,0-43.3L430.3,738c1.1,0.1,2,0.6,3.1,0.6h297.8c41,0,53.6,13.6,54.4,20.2v110.6c0,12.9-2.9,22.1-8.6,27.3c-8.4,7.6-23.3,8-31.7,7.3H254.7c-36.2,0-42.2-32.9-43.1-40.3V480.9C211.6,464,197.9,450.3,181,450.3L181,450.3z M847,493.1c0-16.9-13.7-30.6-30.6-30.6c-16.9,0-30.6,13.7-30.6,30.6v118.5c0,16.9,13.7,30.6,30.6,30.6c16.9,0,30.6-13.7,30.6-30.6V493.1L847,493.1z"/></g>
</svg>