<?xml version="1.0" encoding="utf-8"?>
<!-- Svg Vector Icons : http://www.onlinewebfonts.com/icon -->
<!DOCTYPE svg PUBLIC "-//W3C//DTD SVG 1.1//EN" "http://www.w3.org/Graphics/SVG/1.1/DTD/svg11.dtd">
<svg version="1.1" xmlns="http://www.w3.org/2000/svg" xmlns:xlink="http://www.w3.org/1999/xlink" x="0px" y="0px" viewBox="0 0 1000 1000" enable-background="new 0 0 1000 1000" xml:space="preserve">
<metadata> Svg Vector Icons : http://www.onlinewebfonts.com/icon </metadata>
<g><path d="M500,10C229.4,10,10,229.4,10,500s219.4,490,490,490s490-219.4,490-490S770.6,10,500,10z M500,941C256.8,941,59,743.2,59,500C59,256.8,256.8,59,500,59c243.2,0,441,197.8,441,441C941,743.2,743.2,941,500,941z M590.2,229.4l-0.1-0.1c-126.5-44.2-264.5,21.6-310.6,146.9l-0.7,0.7l0.1,0.4c-0.2,0.7-0.7,1.4-1,2.1c0.4-0.4,1-0.7,1.5-1.2l133,308l-42.1-14.8l-40.5,115.6l115.6,40.5l40.5-115.6l-42.3-14.8l299.7-164.6l1-8.9C777.3,401.2,712.1,272.1,590.2,229.4z M417.2,635.5L299.5,363c21.9-12.4,48.7-15.9,74.3-6.9c22,7.7,38.4,23.5,48.7,42.5L417.2,635.5z M428.1,691.8L428.1,691.8L428.1,691.8L428.1,691.8z M441.2,654.4l5-234.4c23.2-15.7,52.7-21.4,81.2-11.5c28.2,9.9,47.8,32.3,56.2,58.8L441.2,654.4z M735.3,509.6L473,653.2l141.2-185.5c21.1-10.1,45.6-12.8,69.3-4.5C707.1,471.6,725.1,488.6,735.3,509.6z"/></g>
</svg>