<?xml version="1.0" encoding="utf-8"?>
<!-- Svg Vector Icons : http://www.onlinewebfonts.com/icon -->
<!DOCTYPE svg PUBLIC "-//W3C//DTD SVG 1.1//EN" "http://www.w3.org/Graphics/SVG/1.1/DTD/svg11.dtd">
<svg version="1.1" xmlns="http://www.w3.org/2000/svg" xmlns:xlink="http://www.w3.org/1999/xlink" x="0px" y="0px" viewBox="0 0 1000 1000" enable-background="new 0 0 1000 1000" xml:space="preserve">
<metadata> Svg Vector Icons : http://www.onlinewebfonts.com/icon </metadata>
<g><g transform="translate(0.000000,511.000000) scale(0.100000,-0.100000)"><path d="M1137.8,4983.1c-316.2-79.1-553.4-322.2-620.6-640.4c-15.8-73.1-21.7-794.6-21.7-2431.1c0-2569.4-5.9-2452.8,124.5-2670.2c83-136.4,209.5-249.1,369.6-326.1l128.5-61.3l1873.7-5.9l1875.7-4l53.4,43.5c29.6,25.7,87,63.2,126.5,85l75.1,39.5l-5.9,148.2l-5.9,148.2l-1956.7,9.9c-1431,7.9-1966.6,15.8-1996.2,33.6c-63.2,35.6-124.5,108.7-158.1,187.8c-25.7,63.3-29.7,235.2-29.7,1280.8v1205.6h4032h4032v-1512c0-1506.1,0-1510,41.5-1531.8c79.1-43.5,288.6,177.9,381.5,403.2c41.5,100.8,41.5,116.6,47.4,2470.6c2,1494.2-2,2409.3-13.8,2476.5c-59.3,314.3-320.2,583.1-636.4,656.2C8717.5,5020.7,1266.2,5014.7,1137.8,4983.1z M8810.4,4506.8c177.9-75.1,221.4-172,223.3-498.1v-243.1h-4032h-4032v237.2c0,322.2,41.5,421,207.5,496.1c75.1,35.6,231.3,37.6,3820.5,37.6C8320.3,4536.4,8747.2,4532.5,8810.4,4506.8z"/><path d="M1602.2,929.4V623h1933h1933l108.7,130.4c120.6,146.3,310.3,308.3,482.2,413.1l116.6,69.2H3889H1602.2V929.4z"/><path d="M6869.5,959c-506-75.1-964.5-428.9-1162.2-899.3c-94.9-225.3-112.7-377.5-112.7-946.7v-521.8l-189.7-7.9c-185.8-5.9-189.7-7.9-247.1-71.1l-57.3-63.3v-1537.7c0-1488.3,2-1537.7,39.5-1599c23.7-41.5,63.2-71.1,112.7-85c53.4-15.8,604.8-19.8,1869.7-15.8l1796.6,5.9l67.2,73.1l67.2,75.1v1537.7c0,1705.7,7.9,1599-130.4,1656.3c-35.6,15.8-132.4,27.7-213.5,27.7h-146.3l-9.9,579.1c-7.9,628.5-23.7,725.4-144.3,968.5C8116.7,715.9,7490.1,1049.9,6869.5,959z M7373.5,289c215.4-81,409.1-274.7,498.1-496.1c41.5-100.8,45.5-146.3,51.4-656.2l5.9-549.4h-851.9h-851.8l5.9,559.3l5.9,557.4l63.3,134.4c112.7,237.2,314.2,409.1,561.3,478.3C7002,356.2,7231.2,342.3,7373.5,289z M7306.3-2100.6c122.5-63.3,191.7-128.5,255-245.1c53.4-94.9,59.3-122.5,59.3-282.6c0-211.5-35.6-296.5-177.9-421l-88.9-79.1l108.7-506c59.3-276.7,108.7-509.9,108.7-515.8c0-5.9-231.3-9.9-513.9-9.9c-397.3,0-513.9,5.9-513.9,25.7c0,11.9,49.4,245.1,106.7,513.9l106.7,490.2l-88.9,83c-126.5,116.6-183.8,245.1-183.8,419c0,266.8,158.1,488.2,397.3,561.3C6988.1-2035.4,7213.4-2053.1,7306.3-2100.6z"/></g></g>
</svg>